# xmcd
#
# Track frame offsets:
#	150
#	34713
#	71869
#	95407
#	140457
#	177823
#	207235
#	249756
#
# Disc length: 3772 seconds
#
# Revision: 0
# Processed by: cddbd v1.5.1PL0 Copyright (c) Steve Scherf et al.
# Submitted via: dBpowerAMP V4.0
#
DISCID=690eba08
DTITLE=Marc Reece - LIVE'99
DYEAR=1900
DGENRE=Blues
TTITLE0=Had enough
TTITLE1=What do you know
TTITLE2=Bullfrog Blues
TTITLE3=All along the watchtower
TTITLE4=Congo square
TTITLE5=Trouble man
TTITLE6=Red house
TTITLE7=Love to ride
EXTD=
EXTT0=
EXTT1=
EXTT2=
EXTT3=
EXTT4=
EXTT5=
EXTT6=
EXTT7=
PLAYORDER=
